# Blender 4.1.0
# www.blender.org
mtllib Gu.mtl
o 立方体
v 0.500000 -1.000000 -1.000000
v 0.500000 1.000000 -1.000000
v 0.500000 -1.000000 1.000000
v 0.500000 1.000000 1.000000
v -0.500000 -1.000000 -1.000000
v -0.500000 1.000000 -1.000000
v -0.500000 -1.000000 1.000000
v -0.500000 1.000000 1.000000
v 0.000000 0.975172 1.000000
v -0.097545 0.975172 0.980785
v -0.191342 0.975172 0.923880
v -0.277785 0.975172 0.831470
v -0.353553 0.975172 0.707107
v -0.415735 0.975172 0.555570
v -0.461940 0.975172 0.382683
v -0.490393 0.975172 0.195090
v -0.500000 0.975172 0.000000
v -0.490393 0.975172 -0.195090
v -0.461940 0.975172 -0.382683
v -0.415735 0.975172 -0.555570
v -0.353553 0.975172 -0.707107
v -0.277785 0.975172 -0.831470
v -0.191342 0.975172 -0.923880
v -0.097545 0.975172 -0.980785
v 0.000000 0.975172 -1.000000
v 0.097545 0.975172 -0.980785
v 0.191342 0.975172 -0.923880
v 0.277785 0.975172 -0.831470
v 0.353553 0.975172 -0.707107
v 0.415735 0.975172 -0.555570
v 0.461940 0.975172 -0.382683
v 0.490393 0.975172 -0.195090
v 0.500000 0.975172 0.000000
v 0.490393 0.975172 0.195090
v 0.461940 0.975172 0.382683
v 0.415735 0.975172 0.555570
v 0.353553 0.975172 0.707107
v 0.277785 0.975172 0.831470
v 0.191342 0.975172 0.923880
v 0.097545 0.975172 0.980785
v 0.000000 2.975172 0.000000
v 0.500000 -1.911798 1.000000
v -0.500000 -1.911798 1.000000
v 0.500000 -2.106888 0.980785
v -0.500000 -2.106888 0.980785
v 0.500000 -2.294481 0.923880
v -0.500000 -2.294481 0.923880
v 0.500000 -2.467368 0.831470
v -0.500000 -2.467368 0.831470
v 0.500000 -2.618905 0.707107
v -0.500000 -2.618905 0.707107
v 0.500000 -2.743268 0.555570
v -0.500000 -2.743267 0.555570
v 0.500000 -2.835677 0.382683
v -0.500000 -2.835677 0.382683
v 0.500000 -2.892583 0.195090
v -0.500000 -2.892583 0.195090
v 0.500000 -2.911798 0.000000
v -0.500000 -2.911798 0.000000
v 0.500000 -2.892583 -0.195090
v -0.500000 -2.892583 -0.195090
v 0.500000 -2.835677 -0.382683
v -0.500000 -2.835677 -0.382683
v 0.500000 -2.743268 -0.555570
v -0.500000 -2.743267 -0.555570
v 0.500000 -2.618905 -0.707107
v -0.500000 -2.618905 -0.707107
v 0.500000 -2.467368 -0.831470
v -0.500000 -2.467368 -0.831470
v 0.500000 -2.294481 -0.923880
v -0.500000 -2.294481 -0.923880
v 0.500000 -2.106888 -0.980785
v -0.500000 -2.106888 -0.980785
v 0.500000 -1.911798 -1.000000
v -0.500000 -1.911798 -1.000000
v 0.500000 -1.716707 -0.980785
v -0.500000 -1.716707 -0.980785
v 0.500000 -1.529114 -0.923880
v -0.500000 -1.529114 -0.923880
v 0.500000 -1.356228 -0.831470
v -0.500000 -1.356227 -0.831470
v 0.500000 -1.204691 -0.707107
v -0.500000 -1.204691 -0.707107
v 0.500000 -1.080328 -0.555570
v -0.500000 -1.080328 -0.555570
v 0.500000 -0.987918 -0.382683
v -0.500000 -0.987918 -0.382683
v 0.500000 -0.931013 -0.195090
v -0.500000 -0.931012 -0.195090
v 0.500000 -0.911798 0.000000
v -0.500000 -0.911798 0.000000
v 0.500000 -0.931013 0.195090
v -0.500000 -0.931012 0.195090
v 0.500000 -0.987918 0.382683
v -0.500000 -0.987918 0.382683
v 0.500000 -1.080328 0.555570
v -0.500000 -1.080328 0.555570
v 0.500000 -1.204691 0.707107
v -0.500000 -1.204691 0.707107
v 0.500000 -1.356228 0.831470
v -0.500000 -1.356227 0.831470
v 0.500000 -1.529114 0.923880
v -0.500000 -1.529114 0.923880
v 0.500000 -1.716707 0.980785
v -0.500000 -1.716707 0.980785
vn 1.0000 -0.0000 -0.0000
vn -0.0000 -0.0000 1.0000
vn -1.0000 -0.0000 -0.0000
vn -0.0000 -0.0000 -1.0000
vn -0.0000 -1.0000 -0.0000
vn -0.0000 1.0000 -0.0000
vn -0.1735 0.4404 0.8809
vn -0.4740 0.4062 0.7812
vn -0.6814 0.3596 0.6374
vn -0.8098 0.3176 0.4934
vn -0.8867 0.2854 0.3638
vn -0.9321 0.2630 0.2491
vn -0.9576 0.2490 0.1452
vn -0.9690 0.2423 0.0477
vn -0.9690 0.2423 -0.0477
vn -0.9576 0.2490 -0.1452
vn -0.9321 0.2630 -0.2491
vn -0.8867 0.2854 -0.3638
vn -0.8098 0.3176 -0.4934
vn -0.6814 0.3596 -0.6374
vn -0.4740 0.4062 -0.7812
vn -0.1735 0.4404 -0.8809
vn 0.1735 0.4404 -0.8809
vn 0.4740 0.4062 -0.7812
vn 0.6814 0.3596 -0.6374
vn 0.8098 0.3176 -0.4934
vn 0.8867 0.2854 -0.3638
vn 0.9321 0.2630 -0.2491
vn 0.9576 0.2490 -0.1452
vn 0.9690 0.2423 -0.0477
vn 0.9690 0.2423 0.0477
vn 0.9576 0.2490 0.1452
vn 0.9321 0.2630 0.2491
vn 0.8867 0.2854 0.3638
vn 0.8098 0.3176 0.4934
vn 0.6814 0.3596 0.6374
vn 0.4740 0.4062 0.7812
vn 0.1735 0.4404 0.8809
vn -0.0000 -0.0980 0.9952
vn -0.0000 -0.2903 0.9569
vn -0.0000 -0.4714 0.8819
vn -0.0000 -0.6344 0.7730
vn -0.0000 -0.7730 0.6344
vn -0.0000 -0.8819 0.4714
vn -0.0000 -0.9569 0.2903
vn -0.0000 -0.9952 0.0980
vn -0.0000 -0.9952 -0.0980
vn -0.0000 -0.9569 -0.2903
vn -0.0000 -0.8819 -0.4714
vn -0.0000 -0.7730 -0.6344
vn -0.0000 -0.6344 -0.7730
vn -0.0000 -0.4714 -0.8819
vn -0.0000 -0.2903 -0.9569
vn -0.0000 -0.0980 -0.9952
vn -0.0000 0.0980 -0.9952
vn -0.0000 0.2903 -0.9569
vn -0.0000 0.4714 -0.8819
vn -0.0000 0.6344 -0.7730
vn -0.0000 0.7730 -0.6344
vn -0.0000 0.8819 -0.4714
vn -0.0000 0.9569 -0.2903
vn -0.0000 0.9952 -0.0980
vn -0.0000 0.9952 0.0980
vn -0.0000 0.9569 0.2903
vn -0.0000 0.8819 0.4714
vn -0.0000 0.7730 0.6344
vn -0.0000 0.6344 0.7730
vn -0.0000 0.4714 0.8819
vn -0.0000 0.2903 0.9569
vn -0.0000 0.0980 0.9952
vt 0.625000 0.000000
vt 0.375000 0.250000
vt 0.375000 0.000000
vt 0.625000 0.250000
vt 0.375000 0.500000
vt 0.625000 0.500000
vt 0.375000 0.750000
vt 0.625000 0.750000
vt 0.375000 1.000000
vt 0.125000 0.750000
vt 0.125000 0.500000
vt 0.875000 0.500000
vt 0.250000 0.490000
vt 0.250000 0.250000
vt 0.296822 0.485388
vt 0.341844 0.471731
vt 0.383337 0.449553
vt 0.419706 0.419706
vt 0.449553 0.383337
vt 0.471731 0.341844
vt 0.485388 0.296822
vt 0.490000 0.250000
vt 0.485388 0.203178
vt 0.471731 0.158156
vt 0.449553 0.116663
vt 0.419706 0.080294
vt 0.383337 0.050447
vt 0.341844 0.028269
vt 0.296822 0.014612
vt 0.250000 0.010000
vt 0.203178 0.014612
vt 0.158156 0.028269
vt 0.116663 0.050447
vt 0.080294 0.080294
vt 0.050447 0.116663
vt 0.028269 0.158156
vt 0.014612 0.203178
vt 0.010000 0.250000
vt 0.014612 0.296822
vt 0.028269 0.341844
vt 0.050447 0.383337
vt 0.080294 0.419706
vt 0.116663 0.449553
vt 0.158156 0.471731
vt 0.796822 0.014612
vt 0.514612 0.203178
vt 0.703178 0.485388
vt 0.203178 0.485388
vt 1.000000 1.000000
vt 0.968750 0.500000
vt 1.000000 0.500000
vt 0.968750 1.000000
vt 0.937500 0.500000
vt 0.906250 1.000000
vt 0.906250 0.500000
vt 0.875000 1.000000
vt 0.843750 0.500000
vt 0.843750 1.000000
vt 0.812500 0.500000
vt 0.812500 1.000000
vt 0.781250 0.500000
vt 0.781250 1.000000
vt 0.750000 0.500000
vt 0.750000 1.000000
vt 0.718750 0.500000
vt 0.718750 1.000000
vt 0.687500 0.500000
vt 0.687500 1.000000
vt 0.656250 0.500000
vt 0.656250 1.000000
vt 0.625000 1.000000
vt 0.593750 0.500000
vt 0.593750 1.000000
vt 0.562500 0.500000
vt 0.562500 1.000000
vt 0.531250 0.500000
vt 0.531250 1.000000
vt 0.500000 0.500000
vt 0.500000 1.000000
vt 0.468750 0.500000
vt 0.468750 1.000000
vt 0.437500 0.500000
vt 0.437500 1.000000
vt 0.406250 0.500000
vt 0.406250 1.000000
vt 0.343750 0.500000
vt 0.343750 1.000000
vt 0.312500 0.500000
vt 0.312500 1.000000
vt 0.281250 0.500000
vt 0.281250 1.000000
vt 0.250000 0.500000
vt 0.250000 1.000000
vt 0.218750 0.500000
vt 0.218750 1.000000
vt 0.187500 0.500000
vt 0.187500 1.000000
vt 0.156250 0.500000
vt 0.156250 1.000000
vt 0.093750 1.000000
vt 0.093750 0.500000
vt 0.062500 1.000000
vt 0.062500 0.500000
vt 0.031250 0.500000
vt 0.031250 1.000000
vt 0.000000 0.500000
vt 0.875000 0.750000
vt 0.750000 0.490000
vt 0.796822 0.485388
vt 0.841844 0.471731
vt 0.883337 0.449553
vt 0.919706 0.419706
vt 0.949553 0.383337
vt 0.971731 0.341844
vt 0.985388 0.296822
vt 0.990000 0.250000
vt 0.985388 0.203178
vt 0.971731 0.158156
vt 0.949553 0.116663
vt 0.919706 0.080294
vt 0.883337 0.050447
vt 0.841844 0.028269
vt 0.750000 0.010000
vt 0.703178 0.014612
vt 0.658156 0.028269
vt 0.616663 0.050447
vt 0.580294 0.080294
vt 0.550447 0.116663
vt 0.528269 0.158156
vt 0.510000 0.250000
vt 0.514612 0.296822
vt 0.528269 0.341844
vt 0.550447 0.383337
vt 0.580294 0.419706
vt 0.616663 0.449553
vt 0.658156 0.471731
vt 0.937500 1.000000
vt 0.125000 1.000000
vt 0.000000 1.000000
s 0
usemtl マテリアル.007
f 2/1/1 3/2/1 1/3/1
f 4/4/2 7/5/2 3/2/2
f 8/6/3 5/7/3 7/5/3
f 6/8/4 1/9/4 5/7/4
f 7/5/5 1/10/5 3/11/5
f 4/12/6 6/8/6 8/6/6
f 9/13/7 41/14/7 10/15/7
f 10/15/8 41/14/8 11/16/8
f 11/16/9 41/14/9 12/17/9
f 12/17/10 41/14/10 13/18/10
f 13/18/11 41/14/11 14/19/11
f 14/19/12 41/14/12 15/20/12
f 15/20/13 41/14/13 16/21/13
f 16/21/14 41/14/14 17/22/14
f 17/22/15 41/14/15 18/23/15
f 18/23/16 41/14/16 19/24/16
f 19/24/17 41/14/17 20/25/17
f 20/25/18 41/14/18 21/26/18
f 21/26/19 41/14/19 22/27/19
f 22/27/20 41/14/20 23/28/20
f 23/28/21 41/14/21 24/29/21
f 24/29/22 41/14/22 25/30/22
f 25/30/23 41/14/23 26/31/23
f 26/31/24 41/14/24 27/32/24
f 27/32/25 41/14/25 28/33/25
f 28/33/26 41/14/26 29/34/26
f 29/34/27 41/14/27 30/35/27
f 30/35/28 41/14/28 31/36/28
f 31/36/29 41/14/29 32/37/29
f 32/37/30 41/14/30 33/38/30
f 33/38/31 41/14/31 34/39/31
f 34/39/32 41/14/32 35/40/32
f 35/40/33 41/14/33 36/41/33
f 36/41/34 41/14/34 37/42/34
f 37/42/35 41/14/35 38/43/35
f 38/43/36 41/14/36 39/44/36
f 24/45/5 32/46/5 40/47/5
f 39/44/37 41/14/37 40/48/37
f 40/48/38 41/14/38 9/13/38
f 43/49/39 44/50/39 42/51/39
f 45/52/40 46/53/40 44/50/40
f 46/53/41 49/54/41 48/55/41
f 49/54/42 50/12/42 48/55/42
f 51/56/43 52/57/43 50/12/43
f 53/58/44 54/59/44 52/57/44
f 55/60/45 56/61/45 54/59/45
f 57/62/46 58/63/46 56/61/46
f 59/64/47 60/65/47 58/63/47
f 61/66/48 62/67/48 60/65/48
f 63/68/49 64/69/49 62/67/49
f 65/70/50 66/6/50 64/69/50
f 67/71/51 68/72/51 66/6/51
f 69/73/52 70/74/52 68/72/52
f 71/75/53 72/76/53 70/74/53
f 73/77/54 74/78/54 72/76/54
f 75/79/55 76/80/55 74/78/55
f 77/81/56 78/82/56 76/80/56
f 79/83/57 80/84/57 78/82/57
f 81/85/58 82/5/58 80/84/58
f 83/9/59 84/86/59 82/5/59
f 85/87/60 86/88/60 84/86/60
f 87/89/61 88/90/61 86/88/61
f 89/91/62 90/92/62 88/90/62
f 91/93/63 92/94/63 90/92/63
f 93/95/64 94/96/64 92/94/64
f 95/97/65 96/98/65 94/96/65
f 97/99/66 98/11/66 96/98/66
f 98/11/67 101/100/67 100/101/67
f 100/101/68 103/102/68 102/103/68
f 55/20/3 47/16/3 79/32/3
f 103/102/69 104/104/69 102/103/69
f 105/105/70 42/106/70 104/104/70
f 72/45/1 88/46/1 104/47/1
f 2/1/1 4/4/1 3/2/1
f 4/4/2 8/6/2 7/5/2
f 8/6/3 6/8/3 5/7/3
f 6/8/4 2/71/4 1/9/4
f 7/5/5 5/7/5 1/10/5
f 4/12/6 2/107/6 6/8/6
f 40/47/5 9/108/5 10/109/5
f 10/109/5 11/110/5 12/111/5
f 12/111/5 13/112/5 14/113/5
f 14/113/5 15/114/5 16/115/5
f 16/115/5 17/116/5 18/117/5
f 18/117/5 19/118/5 20/119/5
f 20/119/5 21/120/5 22/121/5
f 22/121/5 23/122/5 24/45/5
f 24/45/5 25/123/5 26/124/5
f 26/124/5 27/125/5 28/126/5
f 28/126/5 29/127/5 30/128/5
f 30/128/5 31/129/5 32/46/5
f 32/46/5 33/130/5 34/131/5
f 34/131/5 35/132/5 36/133/5
f 36/133/5 37/134/5 38/135/5
f 38/135/5 39/136/5 40/47/5
f 40/47/5 10/109/5 16/115/5
f 10/109/5 12/111/5 16/115/5
f 12/111/5 14/113/5 16/115/5
f 16/115/5 18/117/5 24/45/5
f 18/117/5 20/119/5 24/45/5
f 20/119/5 22/121/5 24/45/5
f 24/45/5 26/124/5 32/46/5
f 26/124/5 28/126/5 32/46/5
f 28/126/5 30/128/5 32/46/5
f 32/46/5 34/131/5 40/47/5
f 34/131/5 36/133/5 40/47/5
f 36/133/5 38/135/5 40/47/5
f 40/47/5 16/115/5 24/45/5
f 43/49/39 45/52/39 44/50/39
f 45/52/40 47/137/40 46/53/40
f 46/53/41 47/137/41 49/54/41
f 49/54/42 51/56/42 50/12/42
f 51/56/43 53/58/43 52/57/43
f 53/58/44 55/60/44 54/59/44
f 55/60/45 57/62/45 56/61/45
f 57/62/46 59/64/46 58/63/46
f 59/64/47 61/66/47 60/65/47
f 61/66/48 63/68/48 62/67/48
f 63/68/49 65/70/49 64/69/49
f 65/70/50 67/71/50 66/6/50
f 67/71/51 69/73/51 68/72/51
f 69/73/52 71/75/52 70/74/52
f 71/75/53 73/77/53 72/76/53
f 73/77/54 75/79/54 74/78/54
f 75/79/55 77/81/55 76/80/55
f 77/81/56 79/83/56 78/82/56
f 79/83/57 81/85/57 80/84/57
f 81/85/58 83/9/58 82/5/58
f 83/9/59 85/87/59 84/86/59
f 85/87/60 87/89/60 86/88/60
f 87/89/61 89/91/61 88/90/61
f 89/91/62 91/93/62 90/92/62
f 91/93/63 93/95/63 92/94/63
f 93/95/64 95/97/64 94/96/64
f 95/97/65 97/99/65 96/98/65
f 97/99/66 99/138/66 98/11/66
f 98/11/67 99/138/67 101/100/67
f 100/101/68 101/100/68 103/102/68
f 47/16/3 45/15/3 103/44/3
f 45/15/3 43/13/3 103/44/3
f 43/13/3 105/48/3 103/44/3
f 103/44/3 101/43/3 99/42/3
f 99/42/3 97/41/3 95/40/3
f 95/40/3 93/39/3 91/38/3
f 91/38/3 89/37/3 87/36/3
f 87/36/3 85/35/3 83/34/3
f 83/34/3 81/33/3 79/32/3
f 79/32/3 77/31/3 75/30/3
f 75/30/3 73/29/3 71/28/3
f 71/28/3 69/27/3 63/24/3
f 69/27/3 67/26/3 63/24/3
f 67/26/3 65/25/3 63/24/3
f 63/24/3 61/23/3 55/20/3
f 61/23/3 59/22/3 55/20/3
f 59/22/3 57/21/3 55/20/3
f 55/20/3 53/19/3 51/18/3
f 51/18/3 49/17/3 55/20/3
f 49/17/3 47/16/3 55/20/3
f 103/44/3 99/42/3 95/40/3
f 95/40/3 91/38/3 79/32/3
f 91/38/3 87/36/3 79/32/3
f 87/36/3 83/34/3 79/32/3
f 79/32/3 75/30/3 63/24/3
f 75/30/3 71/28/3 63/24/3
f 47/16/3 103/44/3 79/32/3
f 103/44/3 95/40/3 79/32/3
f 63/24/3 55/20/3 79/32/3
f 103/102/69 105/105/69 104/104/69
f 105/105/70 43/139/70 42/106/70
f 104/47/1 42/108/1 44/109/1
f 44/109/1 46/110/1 48/111/1
f 48/111/1 50/112/1 56/115/1
f 50/112/1 52/113/1 56/115/1
f 52/113/1 54/114/1 56/115/1
f 56/115/1 58/116/1 64/119/1
f 58/116/1 60/117/1 64/119/1
f 60/117/1 62/118/1 64/119/1
f 64/119/1 66/120/1 72/45/1
f 66/120/1 68/121/1 72/45/1
f 68/121/1 70/122/1 72/45/1
f 72/45/1 74/123/1 76/124/1
f 76/124/1 78/125/1 80/126/1
f 80/126/1 82/127/1 84/128/1
f 84/128/1 86/129/1 88/46/1
f 88/46/1 90/130/1 92/131/1
f 92/131/1 94/132/1 88/46/1
f 94/132/1 96/133/1 88/46/1
f 96/133/1 98/134/1 100/135/1
f 100/135/1 102/136/1 104/47/1
f 104/47/1 44/109/1 56/115/1
f 44/109/1 48/111/1 56/115/1
f 72/45/1 76/124/1 80/126/1
f 80/126/1 84/128/1 72/45/1
f 84/128/1 88/46/1 72/45/1
f 96/133/1 100/135/1 104/47/1
f 56/115/1 64/119/1 72/45/1
f 88/46/1 96/133/1 104/47/1
f 104/47/1 56/115/1 72/45/1
