# Blender 4.1.0
# www.blender.org
mtllib Basic.mtl
o 円錐
v 0.000000 1.000000 0.000000
v 0.000000 -0.000000 -1.000000
v -1.000000 0.000000 -0.000000
v 0.000000 0.000000 1.000000
v 1.000000 0.000000 -0.000000
v 0.000000 -1.000000 0.000000
vn -0.5774 0.5774 0.5774
vn -0.5774 0.5774 -0.5774
vn 0.5774 0.5774 -0.5774
vn 0.5774 0.5774 0.5774
vn -0.5774 -0.5774 -0.5774
vn -0.5774 -0.5774 0.5774
vn 0.5774 -0.5774 0.5774
vn 0.5774 -0.5774 -0.5774
vt 0.250000 0.490000
vt 0.250000 0.250000
vt 0.490000 0.250000
vt 0.250000 0.010000
vt 0.010000 0.250000
s 0
usemtl マテリアル.001
f 4/1/1 1/2/1 3/3/1
f 3/3/2 1/2/2 2/4/2
f 2/4/3 1/2/3 5/5/3
f 5/5/4 1/2/4 4/1/4
f 2/1/5 6/2/5 3/3/5
f 3/3/6 6/2/6 4/4/6
f 4/4/7 6/2/7 5/5/7
f 5/5/8 6/2/8 2/1/8
