# Blender 4.1.0
# www.blender.org
mtllib Player_Left_Body.mtl
o 立方体.001
v 0.939999 -0.500000 -0.800000
v 0.939999 0.500000 -0.800000
v 0.708964 -0.500000 -0.030004
v 0.708964 0.500000 -0.030004
v 0.020011 -0.500000 -1.852266
v 0.020011 0.500000 -1.852266
v 0.020011 -0.500000 -0.732266
v 0.020011 0.500000 -0.732266
v 0.020011 -0.500000 -0.852266
v 0.020011 0.500000 -0.852266
v 0.940000 -0.240000 -1.940000
v 0.940000 0.240000 -1.940000
v 0.940000 -0.240000 -1.460000
v 0.940000 0.240000 -1.460000
v 0.460000 -0.240000 -1.940000
v 0.460000 0.240000 -1.940000
v 0.460000 -0.240000 -1.460000
v 0.460000 0.240000 -1.460000
vn 0.9578 -0.0000 0.2874
vn -0.7138 -0.0000 0.7003
vn -1.0000 -0.0000 -0.0000
vn 0.7528 -0.0000 -0.6582
vn -0.0000 -1.0000 -0.0000
vn -0.0000 1.0000 -0.0000
vn 1.0000 -0.0000 -0.0000
vn -0.0000 -0.0000 1.0000
vn -0.0000 -0.0000 -1.0000
vt 0.625000 0.125000
vt 0.375000 0.250000
vt 0.375000 0.125000
vt 0.625000 0.250000
vt 0.375000 0.500000
vt 0.625000 0.625000
vt 0.375000 0.750000
vt 0.375000 0.625000
vt 0.625000 0.750000
vt 0.375000 1.000000
vt 0.125000 0.625000
vt 0.875000 0.750000
vt 0.625000 0.500000
vt 0.875000 0.625000
vt 0.125000 0.500000
vt 0.625000 0.000000
vt 0.375000 0.000000
vt 0.125000 0.750000
vt 0.875000 0.500000
vt 0.625000 1.000000
s 0
usemtl マテリアル.002
f 2/1/1 3/2/1 1/3/1
f 4/4/2 7/5/2 3/2/2
f 10/6/3 5/7/3 9/8/3
f 6/9/4 1/10/4 5/7/4
f 1/11/5 9/8/5 5/7/5
f 10/6/6 2/12/6 6/9/6
f 8/13/6 2/14/6 10/6/6
f 7/5/5 1/11/5 3/15/5
f 8/13/3 9/8/3 7/5/3
f 12/16/7 13/2/7 11/17/7
f 14/4/8 17/5/8 13/2/8
f 18/13/3 15/7/3 17/5/3
f 16/9/9 11/10/9 15/7/9
f 17/5/5 11/18/5 13/15/5
f 14/19/6 16/9/6 18/13/6
f 2/1/1 4/4/1 3/2/1
f 4/4/2 8/13/2 7/5/2
f 10/6/3 6/9/3 5/7/3
f 6/9/4 2/20/4 1/10/4
f 8/13/6 4/19/6 2/14/6
f 7/5/5 9/8/5 1/11/5
f 8/13/3 10/6/3 9/8/3
f 12/16/7 14/4/7 13/2/7
f 14/4/8 18/13/8 17/5/8
f 18/13/3 16/9/3 15/7/3
f 16/9/9 12/20/9 11/10/9
f 17/5/5 15/7/5 11/18/5
f 14/19/6 12/12/6 16/9/6
